# xmcd CD database file
#
# Track frame offsets:
#	150
#	58722
#	103525
#	162447
#	243700
#
# Disc length: 4031 seconds
#
# Revision: 1
# Processed by: cddbd v1.5.2PL0 Copyright (c) Steve Scherf et al.
# Submitted via: CDex 1.70beta2
#
DISCID=3f0fbd05
DTITLE=Ulli Orth's Quintessence - Moods
DYEAR=1995
DGENRE=Jazz
TTITLE0=Moods Part 1
TTITLE1=Moods Part 2
TTITLE2=Stoeries and News
TTITLE3=Appendix
TTITLE4=Harmolodic Dreams
EXTD=YEAR: 1995
EXTT0=
EXTT1=
EXTT2=
EXTT3=
EXTT4=
PLAYORDER=
